<svg data-name="se-logo-sm" xmlns="http://www.w3.org/2000/svg" viewBox="0 0 73 57.978" width="73" height="58"><path d="M71.5 7.999h-70a1.5 1.5 0 0 0 0 3h1.512v40.383a6.615 6.615 0 0 0 6.6 6.6H63.4a6.615 6.615 0 0 0 6.6-6.6V10.999h1.5a1.5 1.5 0 0 0 0-3zm-42-1.006V2.661A.669.669 0 0 1 30.16 2h12.684a.669.669 0 0 1 .66.661v4.332h2V2.661A2.668 2.668 0 0 0 42.844 0H30.156A2.668 2.668 0 0 0 27.5 2.661v4.332z" fill="#30a2cc"/><rect x="3.012" y="14.683" width="66.98" height="36.606" fill="#3485a5"/><path d="M25.267 44.533a19.076 19.076 0 0 1-8.576-1.751c-.7-.349-.98-.734-.665-1.575l1.225-3.258c.315-.8.77-1.085 1.61-.735a12.838 12.838 0 0 0 4.971 1.051c1.925 0 3.535-.281 3.535-1.471 0-.91-1.33-1.436-3.5-2.17-3.781-1.261-7.666-2.87-7.666-8.4 0-5.145 3.71-7.246 9.556-7.246a16.639 16.639 0 0 1 7.56 1.61c.7.386.981.736.665 1.576l-1.19 3.085a1.092 1.092 0 0 1-1.61.735 15.746 15.746 0 0 0-4.62-.735c-1.5 0-2.73.14-2.73 1.26 0 .91 1.189 1.47 3.465 2.31 4.1 1.505 7.7 2.731 7.7 8.016.003 5.633-4.62 7.698-9.73 7.698zm21.91-9.941v3.257h8.61c.875 0 1.261.385 1.261 1.26v3.781c0 .875-.386 1.259-1.261 1.259H40.946c-.876 0-1.26-.384-1.26-1.259V20.625c0-.875.384-1.26 1.26-1.26h14.631c.875 0 1.261.385 1.261 1.26v3.781c0 .875-.386 1.26-1.261 1.26h-8.4v2.905h7.876a1.1 1.1 0 0 1 1.224 1.26v3.535a1.092 1.092 0 0 1-1.224 1.226z" fill="#fff"/></svg>