<?xml version="1.0" standalone="no"?><!DOCTYPE svg PUBLIC "-//W3C//DTD SVG 1.1//EN" "http://www.w3.org/Graphics/SVG/1.1/DTD/svg11.dtd"><svg class="smittenkitchen-logo" xmlns:xlink="http://www.w3.org/1999/xlink" x="0px" y="0px" viewBox="0 0 74 62" style="border-bottom-color:rgb(107, 119, 148);border-left-color:rgb(107, 119, 148);border-right-color:rgb(107, 119, 148);border-top-color:rgb(107, 119, 148);color:rgb(107, 119, 148);cursor:pointer;height:165px;line-height:0px;margin-bottom:-30px;outline-color:rgb(107, 119, 148);text-align:center;text-decoration:none solid rgb(107, 119, 148);text-decoration-color:rgb(107, 119, 148);width:260px;column-rule-color:rgb(107, 119, 148);perspective-origin:130px 82.5px;-webkit-text-emphasis-color:rgb(107, 119, 148);-webkit-text-fill-color:rgb(107, 119, 148);-webkit-text-stroke-color:rgb(107, 119, 148);transform-origin:130px 82.5px;fill:rgb(107, 119, 148);caret-color:rgb(107, 119, 148);" xml:space="preserve" version="1.1" xmlns="http://www.w3.org/2000/svg">
<style type="text/css" style="border-bottom-color:rgb(107, 119, 148);border-left-color:rgb(107, 119, 148);border-right-color:rgb(107, 119, 148);border-top-color:rgb(107, 119, 148);color:rgb(107, 119, 148);cursor:pointer;height:auto;line-height:0px;outline-color:rgb(107, 119, 148);overflow-x:visible;overflow-y:visible;text-align:center;text-decoration:none solid rgb(107, 119, 148);text-decoration-color:rgb(107, 119, 148);width:auto;column-rule-color:rgb(107, 119, 148);perspective-origin:50% 50%;-webkit-text-emphasis-color:rgb(107, 119, 148);-webkit-text-fill-color:rgb(107, 119, 148);-webkit-text-stroke-color:rgb(107, 119, 148);transform-origin:0px 0px;fill:rgb(107, 119, 148);caret-color:rgb(107, 119, 148);">
	.st0{fill:#6F7997;}
</style>
	<g class="logo-text" style="border-bottom-color:rgb(107, 119, 148);border-left-color:rgb(107, 119, 148);border-right-color:rgb(107, 119, 148);border-top-color:rgb(107, 119, 148);color:rgb(107, 119, 148);cursor:pointer;display:none;height:auto;line-height:0px;outline-color:rgb(107, 119, 148);overflow-x:visible;overflow-y:visible;text-align:center;text-decoration:none solid rgb(107, 119, 148);text-decoration-color:rgb(107, 119, 148);width:auto;column-rule-color:rgb(107, 119, 148);perspective-origin:0px 0px;-webkit-text-emphasis-color:rgb(107, 119, 148);-webkit-text-fill-color:rgb(107, 119, 148);-webkit-text-stroke-color:rgb(107, 119, 148);transform-origin:0px 0px;fill:rgb(107, 119, 148);caret-color:rgb(107, 119, 148);">
		<path class="st0" d="M1.9,59.6c0.2,0.3,0.4,0.5,0.5,0.6c0.2,0.1,0.4,0.2,0.6,0.2c0.3,0,0.5-0.1,0.7-0.2C3.9,60,4,59.8,4,59.6&#10;&#9;&#9;&#9;c0-0.2-0.1-0.3-0.2-0.4c-0.1-0.1-0.4-0.3-0.9-0.4c-0.6-0.2-1-0.4-1.3-0.6c-0.3-0.3-0.5-0.7-0.5-1.1c0-0.5,0.2-0.8,0.5-1.1&#10;&#9;&#9;&#9;c0.3-0.3,0.8-0.5,1.4-0.5c0.3,0,0.6,0.1,0.9,0.2c0.3,0.1,0.5,0.2,0.6,0.4c0.1,0.1,0.2,0.3,0.3,0.5L3.9,57&#10;&#9;&#9;&#9;c-0.2-0.2-0.3-0.4-0.5-0.5c-0.2-0.1-0.3-0.2-0.5-0.2c-0.2,0-0.4,0.1-0.6,0.2c-0.1,0.1-0.2,0.3-0.2,0.5c0,0.2,0.1,0.3,0.2,0.4&#10;&#9;&#9;&#9;c0.1,0.1,0.4,0.2,0.9,0.3C3.6,57.9,4,58,4.2,58.2c0.2,0.2,0.4,0.4,0.5,0.6C4.9,59,5,59.3,5,59.5c0,0.3-0.1,0.6-0.2,0.8&#10;&#9;&#9;&#9;C4.6,60.7,4.3,60.9,4,61c-0.3,0.2-0.7,0.2-1.1,0.2c-0.4,0-0.7-0.1-1-0.2c-0.3-0.1-0.5-0.3-0.7-0.5c-0.1-0.1-0.3-0.3-0.4-0.6&#10;&#9;&#9;&#9;L1.9,59.6z" style="border-bottom-color:rgb(107, 119, 148);border-left-color:rgb(107, 119, 148);border-right-color:rgb(107, 119, 148);border-top-color:rgb(107, 119, 148);color:rgb(107, 119, 148);cursor:pointer;height:auto;line-height:0px;outline-color:rgb(107, 119, 148);overflow-x:visible;overflow-y:visible;text-align:center;text-decoration:none solid rgb(107, 119, 148);text-decoration-color:rgb(107, 119, 148);width:auto;column-rule-color:rgb(107, 119, 148);perspective-origin:0px 0px;-webkit-text-emphasis-color:rgb(107, 119, 148);-webkit-text-fill-color:rgb(107, 119, 148);-webkit-text-stroke-color:rgb(107, 119, 148);transform-origin:0px 0px;fill:rgb(111, 121, 151);d:path(&quot;M 1.9 59.6 C 2.1 59.9 2.3 60.1 2.4 60.2 C 2.6 60.3 2.8 60.4 3 60.4 C 3.3 60.4 3.5 60.3 3.7 60.2 C 3.9 60 4 59.8 4 59.6 C 4 59.4 3.9 59.3 3.8 59.2 C 3.7 59.1 3.4 58.9 2.9 58.8 C 2.3 58.6 1.9 58.4 1.6 58.2 C 1.3 57.9 1.1 57.5 1.1 57.1 C 1.1 56.6 1.3 56.3 1.6 56 C 1.9 55.7 2.4 55.5 3 55.5 C 3.3 55.5 3.6 55.6 3.9 55.7 C 4.2 55.8 4.4 55.9 4.5 56.1 C 4.6 56.2 4.7 56.4 4.8 56.6 L 3.9 57 C 3.7 56.8 3.6 56.6 3.4 56.5 C 3.2 56.4 3.1 56.3 2.9 56.3 C 2.7 56.3 2.5 56.4 2.3 56.5 C 2.2 56.6 2.1 56.8 2.1 57 C 2.1 57.2 2.2 57.3 2.3 57.4 C 2.4 57.5 2.7 57.6 3.2 57.7 C 3.6 57.9 4 58 4.2 58.2 C 4.4 58.4 4.6 58.6 4.7 58.8 C 4.9 59 5 59.3 5 59.5 C 5 59.8 4.9 60.1 4.8 60.3 C 4.6 60.7 4.3 60.9 4 61 C 3.7 61.2 3.3 61.2 2.9 61.2 C 2.5 61.2 2.2 61.1 1.9 61 C 1.6 60.9 1.4 60.7 1.2 60.5 C 1.1 60.4 0.9 60.2 0.8 59.9 L 1.9 59.6 Z&quot;);caret-color:rgb(107, 119, 148);"/>
		<path class="st0" d="M6.2,55.6H8l0.9,3.4l0.9-3.4h1.7v5.5h-1v-4.9l-1.3,4.9H8.6l-1.3-4.9v4.9h-1V55.6z" style="border-bottom-color:rgb(107, 119, 148);border-left-color:rgb(107, 119, 148);border-right-color:rgb(107, 119, 148);border-top-color:rgb(107, 119, 148);color:rgb(107, 119, 148);cursor:pointer;height:auto;line-height:0px;outline-color:rgb(107, 119, 148);overflow-x:visible;overflow-y:visible;text-align:center;text-decoration:none solid rgb(107, 119, 148);text-decoration-color:rgb(107, 119, 148);width:auto;column-rule-color:rgb(107, 119, 148);perspective-origin:0px 0px;-webkit-text-emphasis-color:rgb(107, 119, 148);-webkit-text-fill-color:rgb(107, 119, 148);-webkit-text-stroke-color:rgb(107, 119, 148);transform-origin:0px 0px;fill:rgb(111, 121, 151);d:path(&quot;M 6.2 55.6 H 8 L 8.9 59 L 9.8 55.6 H 11.5 V 61.1 H 10.5 V 56.2 L 9.2 61.1 H 8.6 L 7.3 56.2 V 61.1 H 6.3 V 55.6 Z&quot;);caret-color:rgb(107, 119, 148);"/>
		<path class="st0" d="M13.1,55.6h1.1v5.5h-1.1V55.6z" style="border-bottom-color:rgb(107, 119, 148);border-left-color:rgb(107, 119, 148);border-right-color:rgb(107, 119, 148);border-top-color:rgb(107, 119, 148);color:rgb(107, 119, 148);cursor:pointer;height:auto;line-height:0px;outline-color:rgb(107, 119, 148);overflow-x:visible;overflow-y:visible;text-align:center;text-decoration:none solid rgb(107, 119, 148);text-decoration-color:rgb(107, 119, 148);width:auto;column-rule-color:rgb(107, 119, 148);perspective-origin:0px 0px;-webkit-text-emphasis-color:rgb(107, 119, 148);-webkit-text-fill-color:rgb(107, 119, 148);-webkit-text-stroke-color:rgb(107, 119, 148);transform-origin:0px 0px;fill:rgb(111, 121, 151);d:path(&quot;M 13.1 55.6 H 14.2 V 61.1 H 13.1 V 55.6 Z&quot;);caret-color:rgb(107, 119, 148);"/>
		<path class="st0" d="M15.3,55.6h4.2v0.9H18v4.6h-1.1v-4.6h-1.5V55.6z" style="border-bottom-color:rgb(107, 119, 148);border-left-color:rgb(107, 119, 148);border-right-color:rgb(107, 119, 148);border-top-color:rgb(107, 119, 148);color:rgb(107, 119, 148);cursor:pointer;height:auto;line-height:0px;outline-color:rgb(107, 119, 148);overflow-x:visible;overflow-y:visible;text-align:center;text-decoration:none solid rgb(107, 119, 148);text-decoration-color:rgb(107, 119, 148);width:auto;column-rule-color:rgb(107, 119, 148);perspective-origin:0px 0px;-webkit-text-emphasis-color:rgb(107, 119, 148);-webkit-text-fill-color:rgb(107, 119, 148);-webkit-text-stroke-color:rgb(107, 119, 148);transform-origin:0px 0px;fill:rgb(111, 121, 151);d:path(&quot;M 15.3 55.6 H 19.5 V 56.5 H 18 V 61.1 H 16.9 V 56.5 H 15.4 V 55.6 Z&quot;);caret-color:rgb(107, 119, 148);"/>
		<path class="st0" d="M20.5,55.6h4.2v0.9h-1.5v4.6H22v-4.6h-1.5V55.6z" style="border-bottom-color:rgb(107, 119, 148);border-left-color:rgb(107, 119, 148);border-right-color:rgb(107, 119, 148);border-top-color:rgb(107, 119, 148);color:rgb(107, 119, 148);cursor:pointer;height:auto;line-height:0px;outline-color:rgb(107, 119, 148);overflow-x:visible;overflow-y:visible;text-align:center;text-decoration:none solid rgb(107, 119, 148);text-decoration-color:rgb(107, 119, 148);width:auto;column-rule-color:rgb(107, 119, 148);perspective-origin:0px 0px;-webkit-text-emphasis-color:rgb(107, 119, 148);-webkit-text-fill-color:rgb(107, 119, 148);-webkit-text-stroke-color:rgb(107, 119, 148);transform-origin:0px 0px;fill:rgb(111, 121, 151);d:path(&quot;M 20.5 55.6 H 24.7 V 56.5 H 23.2 V 61.1 H 22 V 56.5 H 20.5 V 55.6 Z&quot;);caret-color:rgb(107, 119, 148);"/>
		<path class="st0" d="M25.8,55.6h3.7v1h-2.6v1.2h1.6v0.8h-1.6v1.6h2.6v0.9h-3.7V55.6z" style="border-bottom-color:rgb(107, 119, 148);border-left-color:rgb(107, 119, 148);border-right-color:rgb(107, 119, 148);border-top-color:rgb(107, 119, 148);color:rgb(107, 119, 148);cursor:pointer;height:auto;line-height:0px;outline-color:rgb(107, 119, 148);overflow-x:visible;overflow-y:visible;text-align:center;text-decoration:none solid rgb(107, 119, 148);text-decoration-color:rgb(107, 119, 148);width:auto;column-rule-color:rgb(107, 119, 148);perspective-origin:0px 0px;-webkit-text-emphasis-color:rgb(107, 119, 148);-webkit-text-fill-color:rgb(107, 119, 148);-webkit-text-stroke-color:rgb(107, 119, 148);transform-origin:0px 0px;fill:rgb(111, 121, 151);d:path(&quot;M 25.8 55.6 H 29.5 V 56.6 H 26.9 V 57.8 H 28.5 V 58.6 H 26.9 V 60.2 H 29.5 V 61.1 H 25.8 V 55.6 Z&quot;);caret-color:rgb(107, 119, 148);"/>
		<path class="st0" d="M30.7,55.6h1.1l2.3,3.7v-3.7h1.1v5.5h-1.1l-2.3-3.8v3.8h-1.1V55.6z" style="border-bottom-color:rgb(107, 119, 148);border-left-color:rgb(107, 119, 148);border-right-color:rgb(107, 119, 148);border-top-color:rgb(107, 119, 148);color:rgb(107, 119, 148);cursor:pointer;height:auto;line-height:0px;outline-color:rgb(107, 119, 148);overflow-x:visible;overflow-y:visible;text-align:center;text-decoration:none solid rgb(107, 119, 148);text-decoration-color:rgb(107, 119, 148);width:auto;column-rule-color:rgb(107, 119, 148);perspective-origin:0px 0px;-webkit-text-emphasis-color:rgb(107, 119, 148);-webkit-text-fill-color:rgb(107, 119, 148);-webkit-text-stroke-color:rgb(107, 119, 148);transform-origin:0px 0px;fill:rgb(111, 121, 151);d:path(&quot;M 30.7 55.6 H 31.8 L 34.1 59.3 V 55.6 H 35.2 V 61.1 H 34.1 L 31.8 57.3 V 61.1 H 30.7 V 55.6 Z&quot;);caret-color:rgb(107, 119, 148);"/>
		<path class="st0" d="M39.6,55.6h1.1v2.4l2-2.4h1.2l-1.7,2.1l1.8,3.4h-1.1l-1.4-2.6l-0.8,1v1.6h-1.1V55.6z" style="border-bottom-color:rgb(107, 119, 148);border-left-color:rgb(107, 119, 148);border-right-color:rgb(107, 119, 148);border-top-color:rgb(107, 119, 148);color:rgb(107, 119, 148);cursor:pointer;height:auto;line-height:0px;outline-color:rgb(107, 119, 148);overflow-x:visible;overflow-y:visible;text-align:center;text-decoration:none solid rgb(107, 119, 148);text-decoration-color:rgb(107, 119, 148);width:auto;column-rule-color:rgb(107, 119, 148);perspective-origin:0px 0px;-webkit-text-emphasis-color:rgb(107, 119, 148);-webkit-text-fill-color:rgb(107, 119, 148);-webkit-text-stroke-color:rgb(107, 119, 148);transform-origin:0px 0px;fill:rgb(111, 121, 151);d:path(&quot;M 39.6 55.6 H 40.7 V 58 L 42.7 55.6 H 43.9 L 42.2 57.7 L 44 61.1 H 42.9 L 41.5 58.5 L 40.7 59.5 V 61.1 H 39.6 V 55.6 Z&quot;);caret-color:rgb(107, 119, 148);"/>
		<path class="st0" d="M45.1,55.6h1.1v5.5h-1.1V55.6z" style="border-bottom-color:rgb(107, 119, 148);border-left-color:rgb(107, 119, 148);border-right-color:rgb(107, 119, 148);border-top-color:rgb(107, 119, 148);color:rgb(107, 119, 148);cursor:pointer;height:auto;line-height:0px;outline-color:rgb(107, 119, 148);overflow-x:visible;overflow-y:visible;text-align:center;text-decoration:none solid rgb(107, 119, 148);text-decoration-color:rgb(107, 119, 148);width:auto;column-rule-color:rgb(107, 119, 148);perspective-origin:0px 0px;-webkit-text-emphasis-color:rgb(107, 119, 148);-webkit-text-fill-color:rgb(107, 119, 148);-webkit-text-stroke-color:rgb(107, 119, 148);transform-origin:0px 0px;fill:rgb(111, 121, 151);d:path(&quot;M 45.1 55.6 H 46.2 V 61.1 H 45.1 V 55.6 Z&quot;);caret-color:rgb(107, 119, 148);"/>
		<path class="st0" d="M47.3,55.6h4.2v0.9H50v4.6h-1.1v-4.6h-1.5V55.6z" style="border-bottom-color:rgb(107, 119, 148);border-left-color:rgb(107, 119, 148);border-right-color:rgb(107, 119, 148);border-top-color:rgb(107, 119, 148);color:rgb(107, 119, 148);cursor:pointer;height:auto;line-height:0px;outline-color:rgb(107, 119, 148);overflow-x:visible;overflow-y:visible;text-align:center;text-decoration:none solid rgb(107, 119, 148);text-decoration-color:rgb(107, 119, 148);width:auto;column-rule-color:rgb(107, 119, 148);perspective-origin:0px 0px;-webkit-text-emphasis-color:rgb(107, 119, 148);-webkit-text-fill-color:rgb(107, 119, 148);-webkit-text-stroke-color:rgb(107, 119, 148);transform-origin:0px 0px;fill:rgb(111, 121, 151);d:path(&quot;M 47.3 55.6 H 51.5 V 56.5 H 50 V 61.1 H 48.9 V 56.5 H 47.4 V 55.6 Z&quot;);caret-color:rgb(107, 119, 148);"/>
		<path class="st0" d="M56.6,59.6c-0.1,0.3-0.2,0.6-0.3,0.7c-0.2,0.3-0.4,0.5-0.7,0.7c-0.3,0.2-0.6,0.3-1,0.3&#10;&#9;&#9;&#9;c-0.4,0-0.8-0.1-1.2-0.3c-0.4-0.2-0.7-0.5-0.9-1c-0.2-0.4-0.3-0.9-0.3-1.5c0-0.6,0.1-1.1,0.3-1.6c0.2-0.5,0.5-0.8,0.9-1&#10;&#9;&#9;&#9;c0.4-0.2,0.8-0.3,1.2-0.3c0.3,0,0.6,0.1,0.9,0.2c0.3,0.1,0.5,0.3,0.7,0.6c0.1,0.2,0.2,0.4,0.3,0.7l-1,0.3&#10;&#9;&#9;&#9;c-0.1-0.3-0.2-0.5-0.4-0.7c-0.2-0.2-0.4-0.2-0.7-0.2c-0.4,0-0.7,0.2-0.9,0.6c-0.2,0.4-0.3,0.9-0.3,1.5c0,0.4,0,0.7,0.1,1&#10;&#9;&#9;&#9;c0.1,0.3,0.2,0.5,0.4,0.6s0.4,0.2,0.6,0.2c0.3,0,0.6-0.1,0.8-0.3c0.2-0.2,0.3-0.4,0.4-0.7L56.6,59.6z" style="border-bottom-color:rgb(107, 119, 148);border-left-color:rgb(107, 119, 148);border-right-color:rgb(107, 119, 148);border-top-color:rgb(107, 119, 148);color:rgb(107, 119, 148);cursor:pointer;height:auto;line-height:0px;outline-color:rgb(107, 119, 148);overflow-x:visible;overflow-y:visible;text-align:center;text-decoration:none solid rgb(107, 119, 148);text-decoration-color:rgb(107, 119, 148);width:auto;column-rule-color:rgb(107, 119, 148);perspective-origin:0px 0px;-webkit-text-emphasis-color:rgb(107, 119, 148);-webkit-text-fill-color:rgb(107, 119, 148);-webkit-text-stroke-color:rgb(107, 119, 148);transform-origin:0px 0px;fill:rgb(111, 121, 151);d:path(&quot;M 56.6 59.6 C 56.5 59.9 56.4 60.2 56.3 60.3 C 56.1 60.6 55.9 60.8 55.6 61 C 55.3 61.2 55 61.3 54.6 61.3 C 54.2 61.3 53.8 61.2 53.4 61 C 53 60.8 52.7 60.5 52.5 60 C 52.3 59.6 52.2 59.1 52.2 58.5 C 52.2 57.9 52.3 57.4 52.5 56.9 C 52.7 56.4 53 56.1 53.4 55.9 C 53.8 55.7 54.2 55.6 54.6 55.6 C 54.9 55.6 55.2 55.7 55.5 55.8 C 55.8 55.9 56 56.1 56.2 56.4 C 56.3 56.6 56.4 56.8 56.5 57.1 L 55.5 57.4 C 55.4 57.1 55.3 56.9 55.1 56.7 C 54.9 56.5 54.7 56.5 54.4 56.5 C 54 56.5 53.7 56.7 53.5 57.1 C 53.3 57.5 53.2 58 53.2 58.6 C 53.2 59 53.2 59.3 53.3 59.6 C 53.4 59.9 53.5 60.1 53.7 60.2 S 54.1 60.4 54.3 60.4 C 54.6 60.4 54.9 60.3 55.1 60.1 C 55.3 59.9 55.4 59.7 55.5 59.4 L 56.6 59.6 Z&quot;);caret-color:rgb(107, 119, 148);"/>
		<path class="st0" d="M57.8,55.6h1.1v2.2h2.1v-2.2H62v5.5h-1.1v-2.4h-2.1v2.4h-1.1V55.6z" style="border-bottom-color:rgb(107, 119, 148);border-left-color:rgb(107, 119, 148);border-right-color:rgb(107, 119, 148);border-top-color:rgb(107, 119, 148);color:rgb(107, 119, 148);cursor:pointer;height:auto;line-height:0px;outline-color:rgb(107, 119, 148);overflow-x:visible;overflow-y:visible;text-align:center;text-decoration:none solid rgb(107, 119, 148);text-decoration-color:rgb(107, 119, 148);width:auto;column-rule-color:rgb(107, 119, 148);perspective-origin:0px 0px;-webkit-text-emphasis-color:rgb(107, 119, 148);-webkit-text-fill-color:rgb(107, 119, 148);-webkit-text-stroke-color:rgb(107, 119, 148);transform-origin:0px 0px;fill:rgb(111, 121, 151);d:path(&quot;M 57.8 55.6 H 58.9 V 57.8 H 61 V 55.6 H 62 V 61.1 H 60.9 V 58.7 H 58.8 V 61.1 H 57.7 V 55.6 Z&quot;);caret-color:rgb(107, 119, 148);"/>
		<path class="st0" d="M63.6,55.6h3.7v1h-2.6v1.2h1.6v0.8h-1.6v1.6h2.6v0.9h-3.7V55.6z" style="border-bottom-color:rgb(107, 119, 148);border-left-color:rgb(107, 119, 148);border-right-color:rgb(107, 119, 148);border-top-color:rgb(107, 119, 148);color:rgb(107, 119, 148);cursor:pointer;height:auto;line-height:0px;outline-color:rgb(107, 119, 148);overflow-x:visible;overflow-y:visible;text-align:center;text-decoration:none solid rgb(107, 119, 148);text-decoration-color:rgb(107, 119, 148);width:auto;column-rule-color:rgb(107, 119, 148);perspective-origin:0px 0px;-webkit-text-emphasis-color:rgb(107, 119, 148);-webkit-text-fill-color:rgb(107, 119, 148);-webkit-text-stroke-color:rgb(107, 119, 148);transform-origin:0px 0px;fill:rgb(111, 121, 151);d:path(&quot;M 63.6 55.6 H 67.3 V 56.6 H 64.7 V 57.8 H 66.3 V 58.6 H 64.7 V 60.2 H 67.3 V 61.1 H 63.6 V 55.6 Z&quot;);caret-color:rgb(107, 119, 148);"/>
		<path class="st0" d="M68.4,55.6h1.1l2.3,3.7v-3.7h1.1v5.5h-1.1l-2.3-3.8v3.8h-1.1V55.6z" style="border-bottom-color:rgb(107, 119, 148);border-left-color:rgb(107, 119, 148);border-right-color:rgb(107, 119, 148);border-top-color:rgb(107, 119, 148);color:rgb(107, 119, 148);cursor:pointer;height:auto;line-height:0px;outline-color:rgb(107, 119, 148);overflow-x:visible;overflow-y:visible;text-align:center;text-decoration:none solid rgb(107, 119, 148);text-decoration-color:rgb(107, 119, 148);width:auto;column-rule-color:rgb(107, 119, 148);perspective-origin:0px 0px;-webkit-text-emphasis-color:rgb(107, 119, 148);-webkit-text-fill-color:rgb(107, 119, 148);-webkit-text-stroke-color:rgb(107, 119, 148);transform-origin:0px 0px;fill:rgb(111, 121, 151);d:path(&quot;M 68.4 55.6 H 69.5 L 71.8 59.3 V 55.6 H 72.9 V 61.1 H 71.8 L 69.5 57.3 V 61.1 H 68.4 V 55.6 Z&quot;);caret-color:rgb(107, 119, 148);"/>
	</g>

	<rect x="34" y="0.1" class="st0" width="6.3" height="50.6" style="border-bottom-color:rgb(107, 119, 148);border-left-color:rgb(107, 119, 148);border-right-color:rgb(107, 119, 148);border-top-color:rgb(107, 119, 148);color:rgb(107, 119, 148);cursor:pointer;height:50.6px;line-height:0px;outline-color:rgb(107, 119, 148);overflow-x:visible;overflow-y:visible;text-align:center;text-decoration:none solid rgb(107, 119, 148);text-decoration-color:rgb(107, 119, 148);width:6.3px;column-rule-color:rgb(107, 119, 148);perspective-origin:0px 0px;-webkit-text-emphasis-color:rgb(107, 119, 148);-webkit-text-fill-color:rgb(107, 119, 148);-webkit-text-stroke-color:rgb(107, 119, 148);transform-origin:0px 0px;fill:rgb(111, 121, 151);x:34px;y:0.1px;caret-color:rgb(107, 119, 148);"/>
	<path class="st0" d="M0,50.7h9.4c0,0,2.8-12.2-9.4-14V50.7z" style="border-bottom-color:rgb(107, 119, 148);border-left-color:rgb(107, 119, 148);border-right-color:rgb(107, 119, 148);border-top-color:rgb(107, 119, 148);color:rgb(107, 119, 148);cursor:pointer;height:auto;line-height:0px;outline-color:rgb(107, 119, 148);overflow-x:visible;overflow-y:visible;text-align:center;text-decoration:none solid rgb(107, 119, 148);text-decoration-color:rgb(107, 119, 148);width:auto;column-rule-color:rgb(107, 119, 148);perspective-origin:0px 0px;-webkit-text-emphasis-color:rgb(107, 119, 148);-webkit-text-fill-color:rgb(107, 119, 148);-webkit-text-stroke-color:rgb(107, 119, 148);transform-origin:0px 0px;fill:rgb(111, 121, 151);d:path(&quot;M 0 50.7 H 9.4 C 9.4 50.7 12.2 38.5 0 36.7 V 50.7 Z&quot;);caret-color:rgb(107, 119, 148);"/>
	<path class="st0" d="M7.3,17.9c0.5-4.2,7.5-2.3,7.5-2.3c-2.2,6.2,3.6,13.9,10.8,11.7c5.5-1.8,6.8-11.7-3.5-16.4&#10;&#9;&#9;C10.4,5.5,0,12.9,0,12.9v17.9c0,0,8.8,7.1,15.8,12.5c7,5.4,1.6,7.3,1.6,7.3h11.5C41.8,35.3,6.4,24.6,7.3,17.9z M24.9,45.5&#10;&#9;&#9;c0.1-0.5-0.6-4.2-11.6-12C2.1,25.5,1.7,21.6,1.7,21.6C5.1,25.5,13.2,31,13.2,31C30,41.9,24.9,45.5,24.9,45.5z" style="border-bottom-color:rgb(107, 119, 148);border-left-color:rgb(107, 119, 148);border-right-color:rgb(107, 119, 148);border-top-color:rgb(107, 119, 148);color:rgb(107, 119, 148);cursor:pointer;height:auto;line-height:0px;outline-color:rgb(107, 119, 148);overflow-x:visible;overflow-y:visible;text-align:center;text-decoration:none solid rgb(107, 119, 148);text-decoration-color:rgb(107, 119, 148);width:auto;column-rule-color:rgb(107, 119, 148);perspective-origin:0px 0px;-webkit-text-emphasis-color:rgb(107, 119, 148);-webkit-text-fill-color:rgb(107, 119, 148);-webkit-text-stroke-color:rgb(107, 119, 148);transform-origin:0px 0px;fill:rgb(111, 121, 151);d:path(&quot;M 7.3 17.9 C 7.8 13.7 14.8 15.6 14.8 15.6 C 12.6 21.8 18.4 29.5 25.6 27.3 C 31.1 25.5 32.4 15.6 22.1 10.9 C 10.4 5.5 0 12.9 0 12.9 V 30.8 C 0 30.8 8.8 37.9 15.8 43.3 C 22.8 48.7 17.4 50.6 17.4 50.6 H 28.9 C 41.8 35.3 6.4 24.6 7.3 17.9 Z M 24.9 45.5 C 25 45 24.3 41.3 13.3 33.5 C 2.1 25.5 1.7 21.6 1.7 21.6 C 5.1 25.5 13.2 31 13.2 31 C 30 41.9 24.9 45.5 24.9 45.5 Z&quot;);caret-color:rgb(107, 119, 148);"/>
	<path class="st0" d="M74,27.2V10.8C60,4,51.5,13,48.9,15.6V0.1h-6.3v50.6h6.3V29.5c10.9,6.1,17.4,21.2,17.4,21.2H74v-14&#10;&#9;&#9;c-7.8-12.9-22.8-14.1-22.8-14.1c6.4-9.4,13.3-8.1,13.3-8.1C64.2,26.1,74,27.2,74,27.2z M70.5,15.9c0.4-0.3,1.4,0.5,2.2,1.6&#10;&#9;&#9;c0.8,1.2,1.1,2.4,0.6,2.6c-0.4,0.3-1.4-0.5-2.2-1.6C70.3,17.4,70,16.2,70.5,15.9z M72.5,48.9c0,0-5.2-9.5-9.3-14.8&#10;&#9;&#9;C63.2,34,71,37.7,72.5,48.9z" style="border-bottom-color:rgb(107, 119, 148);border-left-color:rgb(107, 119, 148);border-right-color:rgb(107, 119, 148);border-top-color:rgb(107, 119, 148);color:rgb(107, 119, 148);cursor:pointer;height:auto;line-height:0px;outline-color:rgb(107, 119, 148);overflow-x:visible;overflow-y:visible;text-align:center;text-decoration:none solid rgb(107, 119, 148);text-decoration-color:rgb(107, 119, 148);width:auto;column-rule-color:rgb(107, 119, 148);perspective-origin:0px 0px;-webkit-text-emphasis-color:rgb(107, 119, 148);-webkit-text-fill-color:rgb(107, 119, 148);-webkit-text-stroke-color:rgb(107, 119, 148);transform-origin:0px 0px;fill:rgb(111, 121, 151);d:path(&quot;M 74 27.2 V 10.8 C 60 4 51.5 13 48.9 15.6 V 0.1 H 42.6 V 50.7 H 48.9 V 29.5 C 59.8 35.6 66.3 50.7 66.3 50.7 H 74 V 36.7 C 66.2 23.8 51.2 22.6 51.2 22.6 C 57.6 13.2 64.5 14.5 64.5 14.5 C 64.2 26.1 74 27.2 74 27.2 Z M 70.5 15.9 C 70.9 15.6 71.9 16.4 72.7 17.5 C 73.5 18.7 73.8 19.9 73.3 20.1 C 72.9 20.4 71.9 19.6 71.1 18.5 C 70.3 17.4 70 16.2 70.5 15.9 Z M 72.5 48.9 C 72.5 48.9 67.3 39.4 63.2 34.1 C 63.2 34 71 37.7 72.5 48.9 Z&quot;);caret-color:rgb(107, 119, 148);"/>
</svg>